<svg width="1366" height="1388" viewBox="0 0 1366 1388" fill="none" xmlns="http://www.w3.org/2000/svg">
<path fill-rule="evenodd" clip-rule="evenodd" d="M1285.85 1231.76V805.47C1285.85 804.958 1286.03 804.479 1286.38 804.106C1346.33 740.635 1429.33 590.511 1286.74 492.088C1286.2 491.713 1285.85 491.08 1285.85 490.42V64.8602C1285.85 64.5497 1285.78 64.253 1285.64 63.9759C1266.45 25.9876 1209.65 -34.097 1133.99 26.4248C1114.59 41.9441 1092.82 64.6006 1067.61 90.8282C969.474 192.916 819.335 349.11 555.054 349.11H163.853C40.4724 349.11 4.58497 484.121 4.58635 532.14C4.58696 553.183 3.73539 579 2.80959 607.069C0.693575 671.222 -1.81026 747.133 4.58635 804.672C10.8855 861.369 49.6298 946.291 183.16 965.762C184.146 965.906 184.91 966.754 184.91 967.751V1307.68C181.746 1339.32 190.604 1376.02 251.346 1383.61C311.99 1391.19 415.522 1386.79 459.931 1383.62C460.078 1383.61 460.215 1383.59 460.356 1383.54C491.894 1374.06 517.088 1361.8 517.088 1307.68C517.088 1285.13 518.729 1237.51 520.646 1181.86C523.311 1104.49 526.51 1011.61 526.578 949.04C526.579 947.916 527.436 947.052 528.56 947.086C656.177 950.933 952.533 1022.35 1133.83 1278.97C1133.94 1279.13 1134.06 1279.26 1134.21 1279.38C1170.35 1307.77 1285.85 1330.27 1285.85 1231.76ZM494.02 532.142C620.564 538.469 915.412 501.772 1082.45 304.363V1006.68C993.869 924.429 752.17 765.616 494.02 788.394V532.142Z" fill="#D9D9D9"/>
</svg>
