<svg width="977" height="985" viewBox="0 0 977 985" fill="none" xmlns="http://www.w3.org/2000/svg">
<path d="M599.561 678.705L664.755 616.576C693.46 589.221 738.498 588.936 767.546 615.926L933.516 770.134C940.073 776.225 943.313 785.206 941.171 793.896C922.93 867.868 842.499 992.144 650.666 934.785C362.499 848.623 88.4992 499.123 47.6972 364.057C7.15905 229.865 72.5511 113.824 140.783 49.077C164.608 26.469 201.476 33.256 221.533 59.265L341.011 214.198C361.118 240.272 361.868 276.411 342.859 303.296L294.813 371.253C274.278 400.297 276.943 439.751 301.107 465.854C328.389 495.325 365.658 535.786 402.141 576.042C434.363 611.595 467.196 647.307 493.222 675.469C521.53 706.099 569.368 707.478 599.561 678.705Z" stroke="#F3D709" stroke-width="70"/>
</svg>
