<svg width="1848" height="1848" viewBox="0 0 1848 1848" fill="none" xmlns="http://www.w3.org/2000/svg">
<path d="M1043.08 1166.58L1139.43 1074.79C1168.13 1047.44 1213.16 1047.16 1242.21 1074.14L1449.71 1266.87C1456.27 1272.96 1459.5 1281.89 1457.47 1290.61C1437.16 1377.66 1342.46 1528.11 1113.47 1459.66C772.854 1357.85 448.983 944.868 400.754 785.27C351.307 621.639 435.197 480.849 518.517 405.935C542.935 383.98 579.742 390.779 599.799 416.779L753.594 616.15C773.71 642.228 774.461 678.377 755.443 705.266L686.448 802.821C665.904 831.87 668.585 871.352 692.772 897.445C725.473 932.72 773.133 984.38 819.712 1035.76C861.779 1082.16 904.729 1128.79 936.743 1163.38C965.07 1193.98 1012.88 1195.35 1043.08 1166.58Z" fill="#F5D609"/>
<circle cx="924" cy="924" r="861.5" stroke="#F5D609" stroke-width="125"/>
</svg>
