<svg width="53" height="73" viewBox="0 0 53 73" fill="none" xmlns="http://www.w3.org/2000/svg">
<path d="M0 9V63.5C0 68.4706 4.02944 72.5 9 72.5H44C48.9706 72.5 53 68.4706 53 63.5V22L31.5 0H9C4.02944 0 0 4.02944 0 9Z" fill="#F5D609"/>
<path d="M53 21.5H35C33.8954 21.5 33 20.6046 33 19.5V0" stroke="black" stroke-width="5"/>
<path d="M10 11H19" stroke="black" stroke-width="5" stroke-linecap="round"/>
<path d="M10 19H19" stroke="black" stroke-width="5" stroke-linecap="round"/>
<path d="M26.3045 63C25.7746 63 25.3302 62.8187 24.9712 62.456C24.6134 62.0946 24.4345 61.6463 24.4345 61.1111V58.9389C23.032 58.6241 21.8009 58.0731 20.7412 57.2861C19.6815 56.4991 18.8244 55.3972 18.1699 53.9806C17.9518 53.5398 17.9437 53.0758 18.1456 52.5884C18.3488 52.0999 18.7154 51.7454 19.2452 51.525C19.6815 51.3361 20.1334 51.3443 20.6009 51.5496C21.0684 51.7536 21.4269 52.0917 21.6762 52.5639C22.206 53.5083 22.8761 54.2249 23.6865 54.7134C24.4968 55.2008 25.4941 55.4444 26.6785 55.4444C27.9563 55.4444 29.0397 55.1536 29.9285 54.5718C30.8162 53.9887 31.26 53.0833 31.26 51.8556C31.26 50.7537 30.9172 49.8798 30.2315 49.2338C29.5458 48.589 27.9563 47.8574 25.463 47.0389C22.7826 46.1889 20.9438 45.1739 19.9464 43.994C18.9491 42.8128 18.4504 41.3722 18.4504 39.6722C18.4504 37.6259 19.1049 36.0361 20.4139 34.9028C21.723 33.7694 23.0631 33.1241 24.4345 32.9667V30.8889C24.4345 30.3537 24.6134 29.9048 24.9712 29.5421C25.3302 29.1807 25.7746 29 26.3045 29C26.8343 29 27.2787 29.1807 27.6378 29.5421C27.9956 29.9048 28.1745 30.3537 28.1745 30.8889V32.9667C29.3588 33.1556 30.3873 33.5415 31.26 34.1246C32.1327 34.7063 32.8495 35.4222 33.4105 36.2722C33.691 36.6815 33.7459 37.138 33.5751 37.6417C33.403 38.1454 33.0521 38.5074 32.5222 38.7278C32.0859 38.9167 31.634 38.9242 31.1665 38.7504C30.699 38.5779 30.2626 38.2713 29.8575 37.8306C29.4523 37.3898 28.9773 37.0511 28.4325 36.8143C27.8865 36.5789 27.2083 36.4611 26.398 36.4611C25.0266 36.4611 23.9825 36.7684 23.2657 37.3829C22.5489 37.9961 22.1905 38.7593 22.1905 39.6722C22.1905 40.7111 22.658 41.5296 23.593 42.1278C24.528 42.7259 26.1486 43.3556 28.455 44.0167C30.6055 44.6463 32.2343 45.6455 33.3413 47.0143C34.4471 48.3844 35 49.9667 35 51.7611C35 53.9963 34.3455 55.6963 33.0365 56.8611C31.7275 58.0259 30.1068 58.75 28.1745 59.0333V61.1111C28.1745 61.6463 27.9956 62.0946 27.6378 62.456C27.2787 62.8187 26.8343 63 26.3045 63Z" fill="black" stroke="black"/>
</svg>
