<svg width="1025" height="397" viewBox="0 0 1025 397" fill="none" xmlns="http://www.w3.org/2000/svg">
<path d="M117.112 12.5873H2.6563C1.32608 12.5873 0.366539 13.8617 0.734219 15.1401L97.5 351.587C123 416.638 194.5 401 219 365.587L337.831 172.302C338.603 171.046 340.423 171.029 341.219 172.271L465 365.587C500 416.139 570 390.139 582 351.587L615.394 236.18C615.72 235.054 616.94 234.449 618.05 234.823C628.841 238.453 646.873 241.149 655 242.087H885C938.5 242.087 922.5 292.587 885 292.587H616C600.867 353.169 597.09 372.487 578.436 387.19C576.877 388.419 577.698 391.087 579.684 391.087H905C991 391.087 1025 331.139 1025 300.087V237.087C1025 186.139 964 137.139 877.5 138.587H664.5C649 138.587 648.5 115.087 664.5 115.087H933C941 115.487 949.333 107.587 952.5 103.587L1017.63 15.7788C1018.61 14.459 1017.67 12.5873 1016.03 12.5873H645C559.5 12.5873 532 70.6381 525 95.5871L501.105 197.858C500.699 199.597 498.39 199.972 497.454 198.452L393.5 29.5872C368.5 -10.3608 312.5 -9.36078 286.5 29.5872L181.463 191.783C180.519 193.242 178.291 192.885 177.85 191.203L134.523 26.0205C132.448 18.1059 125.295 12.5873 117.112 12.5873Z" fill="#F3D709"/>
</svg>
