<svg width="998" height="654" viewBox="0 0 998 654" fill="none" xmlns="http://www.w3.org/2000/svg">
<g clip-path="url(#clip0_174_36)">
<path d="M707.23 652.35H682.645C679.774 652.347 677.022 651.205 674.992 649.175C672.962 647.146 671.821 644.394 671.817 641.523V436.627C671.821 433.757 672.962 431.005 674.992 428.975C677.022 426.945 679.774 425.804 682.645 425.8H707.23C710.101 425.804 712.853 426.945 714.883 428.975C716.913 431.005 718.054 433.757 718.058 436.627V641.523C718.054 644.394 716.913 647.146 714.883 649.175C712.853 651.205 710.101 652.347 707.23 652.35Z" fill="#F5D609"/>
<path d="M658.604 652.35H634.019C631.148 652.347 628.396 651.205 626.366 649.175C624.336 647.146 623.195 644.394 623.191 641.523V436.627C623.195 433.757 624.336 431.005 626.366 428.975C628.396 426.945 631.148 425.804 634.019 425.8H658.604C661.475 425.804 664.227 426.945 666.257 428.975C668.286 431.005 669.428 433.757 669.431 436.627V641.523C669.428 644.394 668.286 647.146 666.256 649.175C664.227 651.205 661.475 652.347 658.604 652.35Z" fill="#F5D609"/>
<path d="M589 457C589 457 592.477 536.034 686.25 533.197C780.023 530.36 745 447.786 745 447.786C745 447.786 723.943 432.893 674.407 447.786C624.87 462.68 589 457 589 457Z" fill="#5E5E5E"/>
<path d="M634.063 309.539C629.536 309.542 625.11 308.209 621.338 305.706L460.715 199.405C458.323 197.818 456.658 195.347 456.086 192.534C455.513 189.722 456.08 186.797 457.662 184.401L471.231 163.901C472.016 162.716 473.026 161.696 474.205 160.901C475.384 160.106 476.707 159.551 478.101 159.267C479.494 158.984 480.93 158.977 482.325 159.249C483.721 159.52 485.05 160.064 486.236 160.848L646.858 267.149C651.005 269.891 654.157 273.898 655.846 278.574C657.535 283.25 657.671 288.345 656.234 293.105C654.798 297.864 651.865 302.033 647.871 304.994C643.877 307.955 639.034 309.549 634.063 309.539Z" fill="#F5D609"/>
<path d="M663.227 211.969C710.145 211.969 748.18 173.937 748.18 127.021C748.18 80.1064 710.145 42.0742 663.227 42.0742C616.309 42.0742 578.275 80.1064 578.275 127.021C578.275 173.937 616.309 211.969 663.227 211.969Z" fill="#F5D609"/>
<path d="M673.159 162.68C667.652 162.528 660.799 162.336 655.519 158.48C653.947 157.284 652.655 155.759 651.734 154.012C650.813 152.265 650.286 150.337 650.189 148.365C650.093 146.963 650.323 145.558 650.861 144.26C651.398 142.961 652.229 141.805 653.287 140.881C656.045 138.551 660.072 138.004 664.412 139.279L659.915 106.424L663.216 105.972L668.502 144.598L665.745 143.333C662.55 141.867 658.164 141.122 655.438 143.425C654.769 144.027 654.247 144.775 653.914 145.612C653.581 146.448 653.445 147.35 653.518 148.248C653.599 149.716 653.995 151.149 654.679 152.451C655.364 153.752 656.32 154.891 657.484 155.789C661.593 158.791 667.056 159.178 673.252 159.351L673.159 162.68Z" fill="#2F2E41"/>
<path d="M643.593 109.258H625.65V112.589H643.593V109.258Z" fill="#2F2E41"/>
<path d="M700.227 109.258H682.285V112.589H700.227V109.258Z" fill="#2F2E41"/>
<path d="M749.04 470.109C749.04 470.109 756.375 220.739 653.687 237.853C560.584 253.369 587.066 452.775 592.82 489.863C593.425 493.762 595.005 497.446 597.726 500.303C608.694 511.815 640.667 538.111 669.579 490.89C723.368 441.994 749.04 470.109 749.04 470.109Z" fill="#5E5E5E"/>
<path d="M480.475 437.225C478.385 437.226 476.339 436.623 474.583 435.489C472.828 434.354 471.437 432.736 470.58 430.83L460.517 408.399C459.935 407.102 459.614 405.703 459.573 404.282C459.532 402.861 459.771 401.445 460.277 400.117C460.783 398.788 461.545 397.572 462.521 396.538C463.497 395.504 464.667 394.672 465.964 394.09L641.707 315.257C644.477 314.014 647.465 313.329 650.5 313.241C653.534 313.153 656.557 313.664 659.394 314.744C662.232 315.824 664.829 317.452 667.037 319.536C669.245 321.619 671.021 324.117 672.264 326.887C673.507 329.657 674.191 332.645 674.279 335.679C674.368 338.714 673.857 341.736 672.777 344.574C671.697 347.411 670.068 350.008 667.985 352.216C665.901 354.424 663.403 356.2 660.633 357.442L484.891 436.277C483.502 436.902 481.998 437.225 480.475 437.225Z" fill="#F5D609"/>
<path d="M711.143 55.2717C694.614 44.0492 673.751 51.673 657.69 59.6819C642.091 67.4601 624.514 77.357 606.865 69.8648C599.972 66.9388 594.369 61.2155 593.396 53.5579C592.236 44.436 597.752 35.8963 603.887 29.6942C610.555 23.3142 618.324 18.1946 626.817 14.5835C635.143 10.8376 643.913 8.17086 652.915 6.64821C670.747 3.56742 689.057 4.79152 706.32 10.2185C723.584 15.6454 739.3 25.1182 752.161 37.8479C764.603 50.5367 774.216 65.7167 780.367 82.3885C786.519 99.0603 789.069 116.846 787.85 134.574C786.446 153.471 780.411 172.74 768.302 187.575C756.941 201.493 739.929 211.278 721.773 212.095C717.324 212.303 712.867 211.941 708.51 211.018C705.373 210.349 704.033 215.165 707.181 215.836C726.091 219.868 745.681 213.877 760.679 202.081C776.468 189.663 786.155 170.863 790.403 151.492C798.531 114.423 788.349 74.531 765.014 44.8553C753.492 30.0735 738.566 18.2965 721.509 10.5278C703.893 2.66261 684.649 -0.868465 665.388 0.230224C646.18 1.19479 627.546 7.09885 611.287 17.3715C596.744 26.7694 580.354 46.6917 592.214 64.3181C596.649 70.9094 604.012 74.9246 611.656 76.5746C620.428 78.2812 629.503 77.4907 637.848 74.2931C656.848 67.5843 674.421 52.5935 695.688 54.8652C700.323 55.3463 704.766 56.9683 708.621 59.5864C711.289 61.3975 713.792 57.0698 711.143 55.2717Z" fill="#CCCCCC"/>
<path d="M368.321 248H62.6794C60.9426 248 59.2535 247.237 57.9912 245.84C56.7259 244.439 56 242.52 56 240.5C56 238.48 56.7259 236.56 57.9912 235.16C59.2535 233.763 60.9426 233 62.6794 233H368.321C370.057 233 371.746 233.763 373.009 235.16C374.274 236.56 375 238.48 375 240.5C375 242.52 374.274 244.439 373.009 245.84C371.746 247.237 370.057 248 368.321 248Z" fill="#CCCCCC" stroke="#CCCCCC" stroke-width="2"/>
<path d="M368.321 287H62.6794C60.9638 287 59.2793 286.203 58.0099 284.715C56.7364 283.222 56 281.168 56 279C56 276.832 56.7364 274.778 58.0099 273.285C59.2793 271.797 60.9638 271 62.6794 271H368.321C370.036 271 371.721 271.797 372.99 273.285C374.264 274.778 375 276.832 375 279C375 281.168 374.264 283.222 372.99 284.715C371.721 286.203 370.036 287 368.321 287Z" fill="#CCCCCC" stroke="#CCCCCC" stroke-width="2"/>
<path d="M995.682 654H361.038C360.597 654 360.173 653.825 359.86 653.512C359.548 653.2 359.373 652.776 359.373 652.335C359.373 651.893 359.548 651.469 359.86 651.157C360.173 650.844 360.597 650.669 361.038 650.669H995.682C996.124 650.669 996.548 650.844 996.86 651.157C997.173 651.469 997.348 651.893 997.348 652.335C997.348 652.776 997.173 653.2 996.86 653.512C996.548 653.825 996.124 654 995.682 654Z" fill="#5E5E5E"/>
<path d="M132.454 83.6398H108.67C107.336 83.6398 106.376 84.9217 106.751 86.2022L126.832 154.735C132.28 168.378 148.625 163.974 152.791 157.672L176.876 119.218C177.651 117.98 179.449 117.963 180.246 119.187L205.351 157.672C212.829 168.273 227.785 162.821 230.349 154.735L237.004 132.16C237.333 131.044 238.548 130.429 239.679 130.701C241.885 131.231 244.575 131.616 245.946 131.771H295.088C306.519 131.771 303.1 142.362 295.088 142.362H237.614C234.088 156.214 233.447 159.78 228.426 163.019H299.361C317.736 163.019 325 150.447 325 143.935V130.722C325 120.037 311.967 109.761 293.485 110.065H247.976C244.664 110.065 244.558 104.136 247.976 104.136H305.343C307.053 104.22 308.833 102.563 309.51 101.724L321.342 86.8868C322.387 85.5768 321.454 83.6398 319.779 83.6398H243.81C225.542 83.6398 219.666 95.8144 218.171 101.047L213.934 118.845C213.523 120.571 211.237 120.947 210.294 119.445L190.075 87.2051C184.733 78.8271 172.768 79.0368 167.213 87.2051L146.697 118.302C145.747 119.743 143.541 119.384 143.095 117.717L134.386 85.1235C134.152 84.2485 133.359 83.6398 132.454 83.6398Z" fill="#F3D709"/>
<path d="M424.8 354C423.891 353.999 422.994 353.792 422.174 353.395C421.354 352.998 420.633 352.421 420.062 351.705L394.068 319.596H14.1054C10.3658 319.592 6.78045 318.088 4.13609 315.416C1.49173 312.743 0.00427667 309.12 0 305.341V77.2553C0.00427667 73.4759 1.49173 69.8525 4.13609 67.18C6.78045 64.5076 10.3658 63.0043 14.1054 63H416.894C420.634 63.0043 424.219 64.5076 426.864 67.18C429.508 69.8525 430.996 73.4759 431 77.2553V347.759C431.009 349.046 430.62 350.305 429.886 351.357C429.152 352.41 428.11 353.203 426.907 353.627C426.231 353.873 425.519 353.999 424.8 354ZM14.1054 66.1679C11.1968 66.1712 8.40819 67.3404 6.35145 69.419C4.29471 71.4976 3.1378 74.3158 3.13454 77.2554V305.341C3.1378 308.28 4.29471 311.098 6.35145 313.177C8.40819 315.256 11.1968 316.425 14.1054 316.428H395.553L422.488 349.699C422.884 350.188 423.42 350.542 424.022 350.711C424.625 350.88 425.264 350.857 425.853 350.644C426.442 350.432 426.951 350.04 427.312 349.524C427.672 349.007 427.865 348.391 427.865 347.759V77.2554C427.862 74.3158 426.705 71.4976 424.648 69.419C422.592 67.3404 419.803 66.1712 416.894 66.1679H14.1054Z" fill="#F5D609"/>
<path d="M196.355 203.455C196.355 208.372 195.423 212.555 193.559 216.004C191.71 219.454 189.185 222.088 185.985 223.908C182.8 225.714 179.219 226.616 175.241 226.616C171.234 226.616 167.638 225.706 164.452 223.886C161.267 222.066 158.75 219.432 156.901 215.982C155.051 212.533 154.126 208.357 154.126 203.455C154.126 198.537 155.051 194.354 156.901 190.905C158.75 187.455 161.267 184.828 164.452 183.023C167.638 181.203 171.234 180.293 175.241 180.293C179.219 180.293 182.8 181.203 185.985 183.023C189.185 184.828 191.71 187.455 193.559 190.905C195.423 194.354 196.355 198.537 196.355 203.455ZM186.69 203.455C186.69 200.269 186.213 197.583 185.259 195.396C184.319 193.209 182.991 191.551 181.273 190.42C179.556 189.29 177.545 188.725 175.241 188.725C172.936 188.725 170.925 189.29 169.208 190.42C167.491 191.551 166.155 193.209 165.201 195.396C164.262 197.583 163.792 200.269 163.792 203.455C163.792 206.64 164.262 209.326 165.201 211.513C166.155 213.7 167.491 215.358 169.208 216.489C170.925 217.619 172.936 218.184 175.241 218.184C177.545 218.184 179.556 217.619 181.273 216.489C182.991 215.358 184.319 213.7 185.259 211.513C186.213 209.326 186.69 206.64 186.69 203.455ZM199.641 188.769V180.909H236.674V188.769H222.869V226H213.446V188.769H199.641ZM242.773 226V180.909H260.562C263.982 180.909 266.896 181.562 269.303 182.869C271.71 184.16 273.545 185.958 274.807 188.263C276.084 190.553 276.723 193.195 276.723 196.189C276.723 199.183 276.077 201.825 274.785 204.115C273.494 206.405 271.622 208.188 269.171 209.465C266.734 210.742 263.784 211.381 260.32 211.381H248.981V203.741H258.779C260.614 203.741 262.126 203.425 263.314 202.794C264.518 202.148 265.413 201.26 266.001 200.13C266.602 198.985 266.903 197.671 266.903 196.189C266.903 194.692 266.602 193.385 266.001 192.27C265.413 191.14 264.518 190.266 263.314 189.65C262.111 189.019 260.584 188.703 258.735 188.703H252.306V226H242.773Z" fill="#F5D609"/>
</g>
<defs>
<clipPath id="clip0_174_36">
<rect width="998" height="654" fill="white"/>
</clipPath>
</defs>
</svg>
