<svg width="512" height="512" viewBox="0 0 512 512" fill="none" xmlns="http://www.w3.org/2000/svg">
<path d="M265.779 484.506C378.418 484.506 469.73 393.205 469.73 280.579C469.73 167.953 378.418 76.6523 265.779 76.6523C153.14 76.6523 61.8281 167.953 61.8281 280.579C61.8281 393.205 153.14 484.506 265.779 484.506Z" fill="#25A5E4"/>
<path d="M149.258 276.112C149.258 276.112 250.286 233.137 285.323 218.004C298.755 211.952 344.305 192.583 344.305 192.583C344.305 192.583 365.327 184.109 363.575 204.689C362.992 213.163 358.32 242.821 353.648 274.902C346.64 320.299 339.049 369.932 339.049 369.932C339.049 369.932 337.881 383.854 327.953 386.275C318.026 388.696 301.674 377.802 298.755 375.38C296.419 373.564 254.957 346.326 239.774 333.009C235.686 329.378 231.014 322.115 240.358 313.641C261.38 293.666 286.491 268.849 301.674 253.112C308.683 245.848 315.689 228.9 286.491 249.48C245.029 279.139 204.152 306.982 204.152 306.982C204.152 306.982 194.808 313.035 177.289 307.587C159.769 302.14 139.33 294.876 139.33 294.876C139.33 294.876 125.316 285.797 149.258 276.112Z" fill="#252525"/>
</svg>
