<svg width="408" height="512" viewBox="0 0 408 512" fill="none" xmlns="http://www.w3.org/2000/svg">
<g clip-path="url(#clip0_429_31)">
<path d="M203.779 484.506C316.418 484.506 407.73 393.205 407.73 280.579C407.73 167.953 316.418 76.6523 203.779 76.6523C91.1402 76.6523 -0.171875 167.953 -0.171875 280.579C-0.171875 393.205 91.1402 484.506 203.779 484.506Z" fill="#F5D609"/>
<path d="M87.2582 276.112C87.2582 276.112 188.286 233.137 223.323 218.004C236.755 211.952 282.305 192.583 282.305 192.583C282.305 192.583 303.327 184.109 301.575 204.689C300.992 213.163 296.32 242.821 291.648 274.902C284.64 320.299 277.049 369.932 277.049 369.932C277.049 369.932 275.881 383.854 265.953 386.275C256.026 388.696 239.674 377.802 236.755 375.38C234.419 373.564 192.957 346.326 177.774 333.009C173.686 329.378 169.014 322.115 178.358 313.641C199.38 293.666 224.491 268.849 239.674 253.112C246.683 245.848 253.689 228.9 224.491 249.48C183.029 279.139 142.152 306.982 142.152 306.982C142.152 306.982 132.808 313.035 115.289 307.587C97.7693 302.14 77.3301 294.876 77.3301 294.876C77.3301 294.876 63.3157 285.797 87.2582 276.112Z" fill="#252525"/>
</g>
<defs>
<clipPath id="clip0_429_31">
<rect width="408" height="512" fill="white"/>
</clipPath>
</defs>
</svg>
