<svg width="72" height="61" viewBox="0 0 72 61" fill="none" xmlns="http://www.w3.org/2000/svg">
<path d="M15.6027 58.3215L65.904 43.1866C68.1947 42.4974 69.7382 40.2597 69.2276 37.9227C67.7267 31.0516 64.7075 30.8051 62.3304 31.1736C61.1446 31.3574 59.9056 31.1727 59.04 30.3417C55.1137 26.5716 57.7906 22.0554 60.2525 18.9274C61.2269 17.6893 61.6593 16.0875 61.2199 14.5745C60.0211 10.447 58.656 8.59168 56.6642 8.11738C56.1319 7.99061 55.5778 8.07416 55.0502 8.21951L6.84864 21.5C1.56218 22.7176 2.87297 26.5708 4.09558 29.5831C4.5918 30.8057 5.52231 31.8173 6.67039 32.4676C15.2672 37.3372 14.6706 41.8778 10.9575 47.1615C10.5651 47.7199 9.98458 48.1309 9.56995 48.673C8.02097 50.698 9.76761 54.8597 11.6897 57.3435C12.6023 58.5229 14.1747 58.7512 15.6027 58.3215Z" stroke="white" stroke-width="4.5"/>
<path d="M9 16.0759L40.5 7.57589C40.1667 7.07589 39 5.27589 37 2.07589C35 -1.12411 30.8333 0.0758853 29 1.07589L9 16.0759Z" fill="white"/>
<circle cx="47" cy="19" r="4" fill="white"/>
<circle cx="50" cy="29" r="4" fill="white"/>
<circle cx="53" cy="39" r="4" fill="white"/>
</svg>
